<svg width="22" height="20" viewBox="0 0 22 20" fill="none" xmlns="http://www.w3.org/2000/svg">
<path d="M3.78482 0.609978C3.66624 0.358519 3.4491 0.162861 3.18116 0.0660456C2.91323 -0.0307701 2.61645 -0.0208124 2.35612 0.0937279C2.09578 0.208268 1.89322 0.418009 1.79299 0.676809C1.69275 0.935609 1.70306 1.22227 1.82165 1.47373L7.37988 13.2437C7.38635 13.2537 7.40965 13.3075 7.43941 13.3575C7.56027 13.5698 7.74887 13.7387 7.97715 13.8392C8.20543 13.9396 8.46118 13.9662 8.70635 13.915C8.76459 13.9025 8.82153 13.8862 8.83318 13.8825L16.8826 11.5662L17.0185 11.5275C17.5879 11.365 18.1405 11.2075 18.5727 10.8737C18.948 10.5837 19.2418 10.205 19.4229 9.77373C19.63 9.27873 19.6287 8.72123 19.6274 8.14873V5.13123C19.6274 5.11873 19.6274 5.05623 19.6222 4.99373C19.6063 4.80223 19.5399 4.61785 19.4293 4.45814C19.3188 4.29842 19.1678 4.16867 18.9907 4.08123C18.812 3.99293 18.6128 3.95074 18.4122 3.95873H5.36623L3.78482 0.608728V0.609978ZM15.3128 15C14.8551 15 14.4162 15.1756 14.0926 15.4882C13.7689 15.8008 13.5871 16.2248 13.5871 16.6669C13.5871 17.1089 13.7689 17.5329 14.0926 17.8455C14.4162 18.1581 14.8551 18.3337 15.3128 18.3337H15.3219C15.7796 18.3337 16.2185 18.1581 16.5421 17.8455C16.8658 17.5329 17.0476 17.1089 17.0476 16.6669C17.0476 16.2248 16.8658 15.8008 16.5421 15.4882C16.2185 15.1756 15.7796 15 15.3219 15H15.3128ZM4.098 16.6675C4.098 15.7462 4.87059 15 5.82306 15H5.83212C6.2898 15 6.72874 15.1756 7.05237 15.4882C7.37601 15.8008 7.55782 16.2248 7.55782 16.6669C7.55782 17.1089 7.37601 17.5329 7.05237 17.8455C6.72874 18.1581 6.2898 18.3337 5.83212 18.3337H5.82306C5.36554 18.3337 4.92677 18.1582 4.60326 17.8457C4.27975 17.5332 4.098 17.1094 4.098 16.6675Z" fill="#C8C8D1"/>
</svg>
