<svg width="16" height="16" viewBox="0 0 16 16" fill="none" xmlns="http://www.w3.org/2000/svg">
<g clip-path="url(#clip0_918_5203)">
<path d="M11.5686 11.0002H5.86339C5.20328 11.0002 4.87323 11.0002 4.60822 10.8784C4.37471 10.7711 4.17717 10.5986 4.03938 10.3817C3.88302 10.1356 3.83852 9.80851 3.74953 9.15443L3.04827 4.00016H14.0228C14.244 4.00016 14.3545 4.00016 14.4324 4.04551C14.5006 4.08529 14.5525 4.14801 14.5788 4.2225C14.6088 4.30741 14.5881 4.41603 14.5467 4.63329L13.6643 9.266C13.5467 9.88327 13.4879 10.1919 13.3288 10.423C13.1886 10.6267 12.9944 10.7874 12.768 10.8871C12.5112 11.0002 12.197 11.0002 11.5686 11.0002Z" fill="white"/>
<path d="M6.00065 14.6668C6.36884 14.6668 6.66732 14.3684 6.66732 14.0002C6.66732 13.632 6.36884 13.3335 6.00065 13.3335C5.63246 13.3335 5.33398 13.632 5.33398 14.0002C5.33398 14.3684 5.63246 14.6668 6.00065 14.6668Z" fill="white"/>
<path d="M11.334 14.6668C11.7022 14.6668 12.0007 14.3684 12.0007 14.0002C12.0007 13.632 11.7022 13.3335 11.334 13.3335C10.9658 13.3335 10.6673 13.632 10.6673 14.0002C10.6673 14.3684 10.9658 14.6668 11.334 14.6668Z" fill="white"/>
<path d="M1.33398 1.3335H2.20476C2.36877 1.3335 2.45078 1.3335 2.51677 1.36366C2.57493 1.39023 2.62422 1.43298 2.65875 1.48679C2.69794 1.54786 2.70954 1.62904 2.73273 1.7914L3.04827 4.00016M3.04827 4.00016L3.74953 9.15443C3.83852 9.80851 3.88302 10.1356 4.03938 10.3817C4.17717 10.5986 4.37471 10.7711 4.60822 10.8784C4.87323 11.0002 5.20328 11.0002 5.86339 11.0002H11.5686C12.197 11.0002 12.5112 11.0002 12.768 10.8871C12.9944 10.7874 13.1886 10.6267 13.3288 10.423C13.4879 10.1919 13.5467 9.88327 13.6643 9.266L14.5467 4.63329C14.5881 4.41603 14.6088 4.30741 14.5788 4.2225C14.5525 4.14801 14.5006 4.08529 14.4324 4.04551C14.3545 4.00016 14.244 4.00016 14.0228 4.00016H3.04827ZM6.66732 14.0002C6.66732 14.3684 6.36884 14.6668 6.00065 14.6668C5.63246 14.6668 5.33398 14.3684 5.33398 14.0002C5.33398 13.632 5.63246 13.3335 6.00065 13.3335C6.36884 13.3335 6.66732 13.632 6.66732 14.0002ZM12.0007 14.0002C12.0007 14.3684 11.7022 14.6668 11.334 14.6668C10.9658 14.6668 10.6673 14.3684 10.6673 14.0002C10.6673 13.632 10.9658 13.3335 11.334 13.3335C11.7022 13.3335 12.0007 13.632 12.0007 14.0002Z" stroke="white" stroke-linecap="round" stroke-linejoin="round"/>
</g>
<defs>
<clipPath id="clip0_918_5203">
<rect width="16" height="16" fill="white"/>
</clipPath>
</defs>
</svg>
