<svg width="25" height="24" viewBox="0 0 25 24" fill="none" xmlns="http://www.w3.org/2000/svg">
<g clip-path="url(#clip0_136_19996)">
<g clip-path="url(#clip1_136_19996)">
<path d="M4.93952 1.39497C4.81016 1.11097 4.57327 0.889992 4.28098 0.780647C3.98869 0.671303 3.66493 0.682549 3.38093 0.811912C3.09693 0.941275 2.87595 1.17816 2.76661 1.47045C2.65726 1.76274 2.66851 2.0865 2.79787 2.3705L8.8614 15.6637C8.86846 15.675 8.89387 15.7357 8.92634 15.7921C9.0582 16.0319 9.26394 16.2228 9.51297 16.3362C9.762 16.4497 10.041 16.4797 10.3085 16.4218C10.372 16.4077 10.4341 16.3893 10.4468 16.3851L19.228 13.7691L19.3762 13.7253C19.9974 13.5418 20.6002 13.3639 21.0718 12.987C21.4812 12.6594 21.8016 12.2317 21.9993 11.7446C22.2252 11.1856 22.2238 10.5559 22.2223 9.90932V6.50132C22.2223 6.48721 22.2223 6.41662 22.2167 6.34603C22.1993 6.12975 22.1269 5.92151 22.0063 5.74113C21.8857 5.56074 21.721 5.4142 21.5278 5.31544C21.3328 5.21572 21.1155 5.16806 20.8967 5.17709H6.6647L4.93952 1.39356V1.39497ZM17.5155 17.6472C17.0162 17.6472 16.5374 17.8456 16.1843 18.1986C15.8313 18.5517 15.6329 19.0305 15.6329 19.5298C15.6329 20.0291 15.8313 20.5079 16.1843 20.861C16.5374 21.214 17.0162 21.4124 17.5155 21.4124H17.5254C18.0247 21.4124 18.5035 21.214 18.8566 20.861C19.2096 20.5079 19.408 20.0291 19.408 19.5298C19.408 19.0305 19.2096 18.5517 18.8566 18.1986C18.5035 17.8456 18.0247 17.6472 17.5254 17.6472H17.5155ZM5.28117 19.5305C5.28117 18.49 6.12399 17.6472 7.16305 17.6472H7.17293C7.67223 17.6472 8.15107 17.8456 8.50412 18.1986C8.85718 18.5517 9.05552 19.0305 9.05552 19.5298C9.05552 20.0291 8.85718 20.5079 8.50412 20.861C8.15107 21.214 7.67223 21.4124 7.17293 21.4124H7.16305C6.66394 21.4124 6.18528 21.2141 5.83236 20.8612C5.47944 20.5083 5.28117 20.0296 5.28117 19.5305Z" fill="white"/>
</g>
</g>
<defs>
<clipPath id="clip0_136_19996">
<rect width="24" height="24" fill="white" transform="translate(0.810059)"/>
</clipPath>
<clipPath id="clip1_136_19996">
<rect width="24" height="22.5882" fill="white" transform="translate(0.810059 0.706055)"/>
</clipPath>
</defs>
</svg>
