<svg width="24" height="20" viewBox="0 0 24 20" fill="none" xmlns="http://www.w3.org/2000/svg">
<g clip-path="url(#clip0_423_1535)">
<path fill-rule="evenodd" clip-rule="evenodd" d="M16 9.50001C16.4596 9.50001 16.9148 9.40948 17.3394 9.23359C17.764 9.0577 18.1499 8.79989 18.4749 8.47488C18.7999 8.14988 19.0577 7.76404 19.2336 7.3394C19.4095 6.91476 19.5 6.45964 19.5 6.00001C19.5 5.54038 19.4095 5.08526 19.2336 4.66062C19.0577 4.23598 18.7999 3.85014 18.4749 3.52513C18.1499 3.20013 17.764 2.94232 17.3394 2.76643C16.9148 2.59054 16.4596 2.50001 16 2.50001C15.0717 2.50001 14.1815 2.86876 13.5251 3.52513C12.8687 4.18151 12.5 5.07175 12.5 6.00001C12.5 6.92827 12.8687 7.8185 13.5251 8.47488C14.1815 9.13126 15.0717 9.50001 16 9.50001ZM16 12C17.2364 12.0018 18.4429 11.6199 19.453 10.907L21.693 13.056C21.9322 13.2856 22.2528 13.4107 22.5843 13.4038C22.9158 13.397 23.231 13.2587 23.4605 13.0195C23.69 12.7803 23.8152 12.4597 23.8083 12.1282C23.8015 11.7967 23.6632 11.4816 23.424 11.252L21.154 9.07401C21.8325 7.93661 22.1157 6.60666 21.9593 5.29151C21.8029 3.97635 21.2158 2.74989 20.2894 1.80334C19.363 0.856796 18.1495 0.24335 16.838 0.0586438C15.5266 -0.126062 14.1908 0.128351 13.0391 0.782222C11.8873 1.43609 10.9843 2.45267 10.4707 3.67348C9.95715 4.89428 9.86196 6.2507 10.2 7.53126C10.538 8.81183 11.2902 9.94458 12.3393 10.7529C13.3885 11.5612 14.6756 11.9997 16 12ZM1.5 3.00001H8.582C8.1965 3.95316 7.99888 4.97185 8 6.00001H1.5C1.10218 6.00001 0.720644 5.84197 0.43934 5.56067C0.158035 5.27936 0 4.89783 0 4.50001C0 4.10218 0.158035 3.72065 0.43934 3.43935C0.720644 3.15804 1.10218 3.00001 1.5 3.00001ZM1.5 10H9.07C9.77085 11.2102 10.7752 12.2167 11.984 12.92C11.832 12.972 11.669 13 11.5 13H1.5C1.10218 13 0.720644 12.842 0.43934 12.5607C0.158035 12.2794 0 11.8978 0 11.5C0 11.1022 0.158035 10.7207 0.43934 10.4393C0.720644 10.158 1.10218 10 1.5 10ZM0 18.5C0 18.1022 0.158035 17.7207 0.43934 17.4393C0.720644 17.158 1.10218 17 1.5 17H18.5C18.8978 17 19.2794 17.158 19.5607 17.4393C19.842 17.7207 20 18.1022 20 18.5C20 18.8978 19.842 19.2794 19.5607 19.5607C19.2794 19.842 18.8978 20 18.5 20H1.5C1.10218 20 0.720644 19.842 0.43934 19.5607C0.158035 19.2794 0 18.8978 0 18.5Z" fill="#C8C8D1"/>
</g>
<defs>
<clipPath id="clip0_423_1535">
<rect width="24" height="20" fill="white"/>
</clipPath>
</defs>
</svg>
