<svg width="20" height="20" viewBox="0 0 20 20" fill="none" xmlns="http://www.w3.org/2000/svg">
<g clip-path="url(#clip0_423_1365)">
<g clip-path="url(#clip1_423_1365)">
<path fill-rule="evenodd" clip-rule="evenodd" d="M0 12.727C0 11.723 0.814 10.909 1.818 10.909H7.273C8.277 10.909 9.091 11.723 9.091 12.727V18.182C9.091 18.6642 8.89946 19.1266 8.55852 19.4675C8.21758 19.8085 7.75516 20 7.273 20H1.818C1.57926 20 1.34285 19.953 1.12228 19.8616C0.901712 19.7702 0.701297 19.6363 0.53248 19.4675C0.363663 19.2987 0.22975 19.0983 0.138387 18.8777C0.047024 18.6571 0 18.4207 0 18.182L0 12.727ZM6.364 12.727C6.60517 12.7273 6.83638 12.8233 7.00682 12.9939C7.17726 13.1645 7.273 13.3958 7.273 13.637V17.273C7.27273 17.5142 7.17674 17.7454 7.00611 17.9158C6.83548 18.0863 6.60417 18.182 6.363 18.182H2.728C2.48683 18.1817 2.25562 18.0857 2.08518 17.9151C1.91474 17.7445 1.819 17.5132 1.819 17.272V13.636C1.81927 13.3948 1.91526 13.1636 2.08589 12.9932C2.25652 12.8227 2.48783 12.727 2.729 12.727H6.364ZM0 1.818C0 0.814 0.814 0 1.818 0H7.273C8.277 0 9.09 0.814 9.09 1.818V7.273C9.08974 7.75482 8.89822 8.21682 8.55752 8.55752C8.21682 8.89822 7.75482 9.08974 7.273 9.09H1.818C1.33601 9.09 0.873746 8.8986 0.532833 8.55787C0.191921 8.21715 0.000265121 7.75499 0 7.273L0 1.818ZM6.364 1.818C6.60517 1.81826 6.83638 1.91426 7.00682 2.08489C7.17726 2.25552 7.273 2.48683 7.273 2.728V6.364C7.27273 6.60517 7.17674 6.83638 7.00611 7.00682C6.83548 7.17726 6.60417 7.273 6.363 7.273H2.728C2.48683 7.27273 2.25562 7.17674 2.08518 7.00611C1.91474 6.83548 1.819 6.60417 1.819 6.363V2.728C1.81927 2.48683 1.91526 2.25562 2.08589 2.08518C2.25652 1.91474 2.48783 1.819 2.729 1.819H6.365L6.364 1.818ZM12.727 0C12.2448 0 11.7824 0.191539 11.4415 0.53248C11.1005 0.873421 10.909 1.33584 10.909 1.818V7.273C10.909 8.277 11.723 9.091 12.727 9.091H18.182C18.6642 9.091 19.1266 8.89946 19.4675 8.55852C19.8085 8.21758 20 7.75516 20 7.273V1.818C20 1.57926 19.953 1.34285 19.8616 1.12228C19.7702 0.901712 19.6363 0.701297 19.4675 0.53248C19.2987 0.363663 19.0983 0.22975 18.8777 0.138387C18.6571 0.047024 18.4207 0 18.182 0L12.727 0ZM18.182 2.727C18.1817 2.48583 18.0857 2.25462 17.9151 2.08418C17.7445 1.91374 17.5132 1.818 17.272 1.818H13.636C13.3948 1.81826 13.1636 1.91426 12.9932 2.08489C12.8227 2.25552 12.727 2.48683 12.727 2.728V6.364C12.727 6.866 13.134 7.273 13.637 7.273H17.273C17.5142 7.27273 17.7454 7.17674 17.9158 7.00611C18.0863 6.83548 18.182 6.60417 18.182 6.363V2.727ZM10.91 12.727C10.91 11.723 11.723 10.909 12.727 10.909H18.182C19.186 10.909 20 11.723 20 12.727V18.182C20 18.4207 19.953 18.6571 19.8616 18.8777C19.7702 19.0983 19.6363 19.2987 19.4675 19.4675C19.2987 19.6363 19.0983 19.7702 18.8777 19.8616C18.6571 19.953 18.4207 20 18.182 20H12.727C12.4883 20 12.2519 19.953 12.0313 19.8616C11.8107 19.7702 11.6103 19.6363 11.4415 19.4675C11.2727 19.2987 11.1388 19.0983 11.0474 18.8777C10.956 18.6571 10.909 18.4207 10.909 18.182L10.91 12.727ZM17.273 12.727C17.5142 12.7273 17.7454 12.8233 17.9158 12.9939C18.0863 13.1645 18.182 13.3958 18.182 13.637V17.273C18.1817 17.5142 18.0857 17.7454 17.9151 17.9158C17.7445 18.0863 17.5132 18.182 17.272 18.182H13.636C13.3948 18.1817 13.1636 18.0857 12.9932 17.9151C12.8227 17.7445 12.727 17.5132 12.727 17.272V13.636C12.7273 13.3948 12.8233 13.1636 12.9939 12.9932C13.1645 12.8227 13.3958 12.727 13.637 12.727H17.273Z" fill="black"/>
</g>
</g>
<defs>
<clipPath id="clip0_423_1365">
<rect width="20" height="20" fill="white"/>
</clipPath>
<clipPath id="clip1_423_1365">
<rect width="20" height="20" fill="white"/>
</clipPath>
</defs>
</svg>
