<svg width="20" height="20" viewBox="0 0 20 20" fill="none" xmlns="http://www.w3.org/2000/svg">
<g clip-path="url(#clip0_423_1369)">
<g clip-path="url(#clip1_423_1369)">
<path fill-rule="evenodd" clip-rule="evenodd" d="M15.9 1.5C15.7939 1.5 15.6922 1.54214 15.6172 1.61716C15.5421 1.69217 15.5 1.79391 15.5 1.9V4.1C15.5 4.32 15.68 4.5 15.9 4.5H18.1C18.2061 4.5 18.3078 4.45786 18.3828 4.38284C18.4579 4.30783 18.5 4.20609 18.5 4.1V1.9C18.5 1.79391 18.4579 1.69217 18.3828 1.61716C18.3078 1.54214 18.2061 1.5 18.1 1.5H15.9ZM15 0C14.7348 0 14.4804 0.105357 14.2929 0.292893C14.1054 0.48043 14 0.734784 14 1V5C14 5.26522 14.1054 5.51957 14.2929 5.70711C14.4804 5.89464 14.7348 6 15 6H19C19.2652 6 19.5196 5.89464 19.7071 5.70711C19.8946 5.51957 20 5.26522 20 5V1C20 0.734784 19.8946 0.48043 19.7071 0.292893C19.5196 0.105357 19.2652 0 19 0L15 0ZM15.9 8.5C15.7939 8.5 15.6922 8.54214 15.6172 8.61716C15.5421 8.69217 15.5 8.79391 15.5 8.9V11.1C15.5 11.32 15.68 11.5 15.9 11.5H18.1C18.2061 11.5 18.3078 11.4579 18.3828 11.3828C18.4579 11.3078 18.5 11.2061 18.5 11.1V8.9C18.5 8.79391 18.4579 8.69217 18.3828 8.61716C18.3078 8.54214 18.2061 8.5 18.1 8.5H15.9ZM15 7C14.7348 7 14.4804 7.10536 14.2929 7.29289C14.1054 7.48043 14 7.73478 14 8V12C14 12.2652 14.1054 12.5196 14.2929 12.7071C14.4804 12.8946 14.7348 13 15 13H19C19.2652 13 19.5196 12.8946 19.7071 12.7071C19.8946 12.5196 20 12.2652 20 12V8C20 7.73478 19.8946 7.48043 19.7071 7.29289C19.5196 7.10536 19.2652 7 19 7H15ZM15.9 15.5C15.7939 15.5 15.6922 15.5421 15.6172 15.6172C15.5421 15.6922 15.5 15.7939 15.5 15.9V18.1C15.5 18.32 15.68 18.5 15.9 18.5H18.1C18.2061 18.5 18.3078 18.4579 18.3828 18.3828C18.4579 18.3078 18.5 18.2061 18.5 18.1V15.9C18.5 15.7939 18.4579 15.6922 18.3828 15.6172C18.3078 15.5421 18.2061 15.5 18.1 15.5H15.9ZM15 14C14.7348 14 14.4804 14.1054 14.2929 14.2929C14.1054 14.4804 14 14.7348 14 15V19C14 19.2652 14.1054 19.5196 14.2929 19.7071C14.4804 19.8946 14.7348 20 15 20H19C19.2652 20 19.5196 19.8946 19.7071 19.7071C19.8946 19.5196 20 19.2652 20 19V15C20 14.7348 19.8946 14.4804 19.7071 14.2929C19.5196 14.1054 19.2652 14 19 14H15ZM8.9 15.5C8.79391 15.5 8.69217 15.5421 8.61716 15.6172C8.54214 15.6922 8.5 15.7939 8.5 15.9V18.1C8.5 18.32 8.68 18.5 8.9 18.5H11.1C11.2061 18.5 11.3078 18.4579 11.3828 18.3828C11.4579 18.3078 11.5 18.2061 11.5 18.1V15.9C11.5 15.7939 11.4579 15.6922 11.3828 15.6172C11.3078 15.5421 11.2061 15.5 11.1 15.5H8.9ZM8 14C7.73478 14 7.48043 14.1054 7.29289 14.2929C7.10536 14.4804 7 14.7348 7 15V19C7 19.2652 7.10536 19.5196 7.29289 19.7071C7.48043 19.8946 7.73478 20 8 20H12C12.2652 20 12.5196 19.8946 12.7071 19.7071C12.8946 19.5196 13 19.2652 13 19V15C13 14.7348 12.8946 14.4804 12.7071 14.2929C12.5196 14.1054 12.2652 14 12 14H8ZM1.9 15.5C1.79391 15.5 1.69217 15.5421 1.61716 15.6172C1.54214 15.6922 1.5 15.7939 1.5 15.9V18.1C1.5 18.32 1.68 18.5 1.9 18.5H4.1C4.20609 18.5 4.30783 18.4579 4.38284 18.3828C4.45786 18.3078 4.5 18.2061 4.5 18.1V15.9C4.5 15.7939 4.45786 15.6922 4.38284 15.6172C4.30783 15.5421 4.20609 15.5 4.1 15.5H1.9ZM1 14C0.734784 14 0.48043 14.1054 0.292893 14.2929C0.105357 14.4804 0 14.7348 0 15L0 19C0 19.2652 0.105357 19.5196 0.292893 19.7071C0.48043 19.8946 0.734784 20 1 20H5C5.26522 20 5.51957 19.8946 5.70711 19.7071C5.89464 19.5196 6 19.2652 6 19V15C6 14.7348 5.89464 14.4804 5.70711 14.2929C5.51957 14.1054 5.26522 14 5 14H1ZM1.9 8.5C1.79391 8.5 1.69217 8.54214 1.61716 8.61716C1.54214 8.69217 1.5 8.79391 1.5 8.9V11.1C1.5 11.32 1.68 11.5 1.9 11.5H4.1C4.20609 11.5 4.30783 11.4579 4.38284 11.3828C4.45786 11.3078 4.5 11.2061 4.5 11.1V8.9C4.5 8.79391 4.45786 8.69217 4.38284 8.61716C4.30783 8.54214 4.20609 8.5 4.1 8.5H1.9ZM1 7C0.734784 7 0.48043 7.10536 0.292893 7.29289C0.105357 7.48043 0 7.73478 0 8L0 12C0 12.2652 0.105357 12.5196 0.292893 12.7071C0.48043 12.8946 0.734784 13 1 13H5C5.26522 13 5.51957 12.8946 5.70711 12.7071C5.89464 12.5196 6 12.2652 6 12V8C6 7.73478 5.89464 7.48043 5.70711 7.29289C5.51957 7.10536 5.26522 7 5 7H1ZM8.9 8.5C8.79391 8.5 8.69217 8.54214 8.61716 8.61716C8.54214 8.69217 8.5 8.79391 8.5 8.9V11.1C8.5 11.32 8.68 11.5 8.9 11.5H11.1C11.2061 11.5 11.3078 11.4579 11.3828 11.3828C11.4579 11.3078 11.5 11.2061 11.5 11.1V8.9C11.5 8.79391 11.4579 8.69217 11.3828 8.61716C11.3078 8.54214 11.2061 8.5 11.1 8.5H8.9ZM8 7C7.73478 7 7.48043 7.10536 7.29289 7.29289C7.10536 7.48043 7 7.73478 7 8V12C7 12.2652 7.10536 12.5196 7.29289 12.7071C7.48043 12.8946 7.73478 13 8 13H12C12.2652 13 12.5196 12.8946 12.7071 12.7071C12.8946 12.5196 13 12.2652 13 12V8C13 7.73478 12.8946 7.48043 12.7071 7.29289C12.5196 7.10536 12.2652 7 12 7H8ZM8.9 1.5C8.79391 1.5 8.69217 1.54214 8.61716 1.61716C8.54214 1.69217 8.5 1.79391 8.5 1.9V4.1C8.5 4.32 8.68 4.5 8.9 4.5H11.1C11.2061 4.5 11.3078 4.45786 11.3828 4.38284C11.4579 4.30783 11.5 4.20609 11.5 4.1V1.9C11.5 1.79391 11.4579 1.69217 11.3828 1.61716C11.3078 1.54214 11.2061 1.5 11.1 1.5H8.9ZM8 0C7.73478 0 7.48043 0.105357 7.29289 0.292893C7.10536 0.48043 7 0.734784 7 1V5C7 5.26522 7.10536 5.51957 7.29289 5.70711C7.48043 5.89464 7.73478 6 8 6H12C12.2652 6 12.5196 5.89464 12.7071 5.70711C12.8946 5.51957 13 5.26522 13 5V1C13 0.734784 12.8946 0.48043 12.7071 0.292893C12.5196 0.105357 12.2652 0 12 0L8 0ZM1.9 1.5C1.79391 1.5 1.69217 1.54214 1.61716 1.61716C1.54214 1.69217 1.5 1.79391 1.5 1.9V4.1C1.5 4.32 1.68 4.5 1.9 4.5H4.1C4.20609 4.5 4.30783 4.45786 4.38284 4.38284C4.45786 4.30783 4.5 4.20609 4.5 4.1V1.9C4.5 1.79391 4.45786 1.69217 4.38284 1.61716C4.30783 1.54214 4.20609 1.5 4.1 1.5H1.9ZM1 0C0.734784 0 0.48043 0.105357 0.292893 0.292893C0.105357 0.48043 0 0.734784 0 1L0 5C0 5.26522 0.105357 5.51957 0.292893 5.70711C0.48043 5.89464 0.734784 6 1 6H5C5.26522 6 5.51957 5.89464 5.70711 5.70711C5.89464 5.51957 6 5.26522 6 5V1C6 0.734784 5.89464 0.48043 5.70711 0.292893C5.51957 0.105357 5.26522 0 5 0L1 0Z" fill="black"/>
</g>
</g>
<defs>
<clipPath id="clip0_423_1369">
<rect width="20" height="20" fill="white"/>
</clipPath>
<clipPath id="clip1_423_1369">
<rect width="20" height="20" fill="white"/>
</clipPath>
</defs>
</svg>
