<svg width="22" height="20" viewBox="0 0 22 20" fill="none" xmlns="http://www.w3.org/2000/svg">
<g clip-path="url(#clip0_330_19102)">
<path fill-rule="evenodd" clip-rule="evenodd" d="M0 6.304C0 2.74 2.828 0 6.412 0C8.087 0 9.755 0.654 11 1.76C12.245 0.655 13.913 0 15.588 0C19.172 0 22 2.739 22 6.304C22 8.521 20.592 10.792 18.692 12.981C16.762 15.203 14.172 17.51 11.525 19.804C11.3794 19.9306 11.193 20.0004 11 20.0004C10.807 20.0004 10.6206 19.9306 10.475 19.804C7.828 17.51 5.238 15.203 3.31 12.98C1.408 10.79 0 8.52 0 6.304Z" fill="white"/>
</g>
<defs>
<clipPath id="clip0_330_19102">
<rect width="22" height="20" fill="white"/>
</clipPath>
</defs>
</svg>
