<svg width="22" height="20" viewBox="0 0 22 20" fill="none" xmlns="http://www.w3.org/2000/svg">
<g clip-path="url(#clip0_423_1539)">
<path fill-rule="evenodd" clip-rule="evenodd" d="M6.52143 0C2.88619 0 0 2.77789 0 6.40211C0 8.66421 1.43524 10.9389 3.29476 13.0758C5.19095 15.2547 7.73457 17.5126 10.317 19.7453C10.507 19.9095 10.7493 19.9998 11 19.9998C11.2507 19.9998 11.493 19.9095 11.683 19.7453C14.2654 17.5137 16.809 15.2547 18.7052 13.0758C20.5658 10.9389 22 8.66316 22 6.40211C22 2.77789 19.1149 0 15.4786 0C13.8558 0 12.2414 0.602105 11 1.63158C9.73768 0.587506 8.15638 0.0114269 6.52143 0Z" fill="#C8C8D1"/>
</g>
<defs>
<clipPath id="clip0_423_1539">
<rect width="22" height="20" fill="white"/>
</clipPath>
</defs>
</svg>
