<svg width="20" height="20" viewBox="0 0 20 20" fill="none" xmlns="http://www.w3.org/2000/svg">
<g clip-path="url(#clip0_423_1533)">
<path d="M19.4631 8.85801L19.4611 8.85601L11.3021 0.540005C11.1316 0.368351 10.9287 0.232236 10.7052 0.139543C10.4817 0.0468498 10.2421 -0.000578373 10.0001 5.32275e-06C9.75817 -0.000523148 9.51852 0.0469303 9.29504 0.13962C9.07155 0.23231 8.86866 0.368396 8.69811 0.540005L0.543114 8.85101L0.535114 8.85901C0.191835 9.20477 -0.000560959 9.6724 1.22859e-06 10.1596C0.000563416 10.6469 0.194038 11.114 0.538114 11.459C0.876969 11.8 1.3364 11.994 1.81711 11.999H2.14211V17.844C2.14211 19.032 3.10911 19.999 4.29711 19.999H7.49011C7.64553 19.999 7.79458 19.9373 7.90448 19.8274C8.01437 19.7175 8.07611 19.5684 8.07611 19.413V14.706C8.07611 14.164 8.51812 13.723 9.06011 13.723H10.9431C11.4851 13.723 11.9261 14.163 11.9261 14.706V19.413C11.9261 19.737 12.1881 19.999 12.5121 19.999H15.7041C16.2755 19.9985 16.8233 19.7713 17.2273 19.3672C17.6314 18.9632 17.8586 18.4154 17.8591 17.844V12H18.1611C18.4031 12.0005 18.6427 11.9531 18.8662 11.8604C19.0897 11.7677 19.2926 11.6316 19.4631 11.46C19.8072 11.1144 20.0003 10.6466 20.0003 10.159C20.0003 9.67137 19.8072 9.20358 19.4631 8.85801Z" fill="#D3D4DD"/>
</g>
<defs>
<clipPath id="clip0_423_1533">
<rect width="20" height="20" fill="white"/>
</clipPath>
</defs>
</svg>
