<svg width="10" height="10" viewBox="0 0 10 10" fill="none" xmlns="http://www.w3.org/2000/svg">
<path d="M5.435 10H6.516C7.167 10 7.493 10 7.774 9.89C8.022 9.79 8.245 9.63 8.424 9.423C8.626 9.187 8.746 8.866 8.988 8.225L9.564 6.7C9.89 5.836 10.053 5.403 9.984 5.056C9.92791 4.75745 9.75885 4.49204 9.512 4.315C9.233 4.119 8.794 4.119 7.916 4.119H6.988C6.697 4.119 6.551 4.119 6.478 4.061C6.44538 4.03568 6.41859 4.00365 6.39944 3.96707C6.38029 3.9305 6.36922 3.89023 6.367 3.849C6.359 3.753 6.439 3.615 6.599 3.341C7.071 2.533 7.484 1.603 7.665 0.794C7.762 0.363 7.426 0 7.01 0C6.89749 0.00256699 6.78682 0.0291438 6.68541 0.0779506C6.58401 0.126757 6.4942 0.196668 6.422 0.283C5.87 0.911 5.359 1.24 4.851 1.567C4.346 1.892 3.845 2.215 3.311 2.827C3.164 2.995 3.091 3.079 2.997 3.251C2.927 3.377 2.847 3.598 2.816 3.741C2.774 3.934 2.774 4.101 2.774 4.435V7.177C2.774 8.165 2.774 8.659 2.955 9.037C3.115 9.369 3.369 9.639 3.682 9.808C4.038 10 4.503 10 5.435 10ZM1.11 2.942C0.496 2.942 0 3.468 0 4.118V8.824C0 9.474 0.497 10 1.11 10C1.722 10 2.218 9.474 2.218 8.824V4.118C2.218 3.468 1.722 2.942 1.109 2.942H1.11Z" fill="white"/>
</svg>
