<svg width="20" height="20" viewBox="0 0 20 20" fill="none" xmlns="http://www.w3.org/2000/svg">
<g clip-path="url(#clip0_423_1541)">
<path fill-rule="evenodd" clip-rule="evenodd" d="M14.759 4.789C14.759 7.559 12.564 9.707 10.006 9.707C7.448 9.707 5.254 7.559 5.254 4.812C5.241 2.101 7.461 0 10.006 0C10.6328 0.00130671 11.2533 0.126332 11.8317 0.367908C12.4101 0.609484 12.9351 0.962859 13.3767 1.40777C13.8183 1.85268 14.1677 2.38038 14.4049 2.9606C14.6421 3.54083 14.7624 4.16217 14.759 4.789ZM0 18.498C0 19.484 0.677 20 2.57 20H17.43C19.323 20 20 19.484 20 18.498C20 15.634 16.15 11.69 10.006 11.69C3.85 11.69 0 15.634 0 18.498Z" fill="#C8C8D1"/>
</g>
<defs>
<clipPath id="clip0_423_1541">
<rect width="20" height="20" fill="white"/>
</clipPath>
</defs>
</svg>
