<svg width="23" height="23" viewBox="0 0 23 23" fill="none" xmlns="http://www.w3.org/2000/svg">
<path d="M15.3334 7.66677L1.91675 21.0834M17.2501 14.3751H8.62508M6.32508 18.2084H12.7816C13.016 18.2084 13.1332 18.2084 13.2435 18.182C13.3413 18.1585 13.4348 18.1198 13.5205 18.0672C13.6172 18.008 13.7001 17.9251 13.8659 17.7593L18.6876 12.9376C18.9166 12.7086 19.0311 12.5941 19.1232 12.4927C21.1167 10.2996 21.1167 6.95059 19.1232 4.75749C19.0311 4.65612 18.9166 4.54161 18.6876 4.31261C18.4586 4.0836 18.3441 3.9691 18.2427 3.87695C16.0496 1.88346 12.7006 1.88346 10.5075 3.87695C10.4061 3.9691 10.2916 4.0836 10.0626 4.3126L5.24085 9.13434C5.07511 9.30008 4.99223 9.38296 4.93297 9.47967C4.88042 9.56541 4.8417 9.65889 4.81823 9.75668C4.79175 9.86697 4.79175 9.98417 4.79175 10.2186V16.6751C4.79175 17.2118 4.79175 17.4802 4.8962 17.6852C4.98808 17.8655 5.13469 18.0121 5.31501 18.104C5.52001 18.2084 5.78836 18.2084 6.32508 18.2084Z" stroke="#9D9DA5" stroke-width="2" stroke-linecap="round" stroke-linejoin="round"/>
</svg>
