<svg width="23" height="23" viewBox="0 0 23 23" fill="none" xmlns="http://www.w3.org/2000/svg">
<path opacity="0.12" d="M1.91675 12.4582V19.1665C1.91675 20.225 2.77487 21.0832 3.83341 21.0832H6.70842V10.5415H3.83342C2.77487 10.5415 1.91675 11.3996 1.91675 12.4582Z" fill="#9D9DA5"/>
<path d="M6.70841 21.0832V10.5415M1.91675 12.4582V19.1665C1.91675 20.2251 2.77487 21.0832 3.83341 21.0832H16.7002C18.1192 21.0832 19.326 20.0479 19.5418 18.6453L20.5739 11.937C20.8418 10.1954 19.4943 8.62484 17.7323 8.62484H14.3751C13.8458 8.62484 13.4167 8.19578 13.4167 7.6665V4.2796C13.4167 2.9745 12.3588 1.9165 11.0537 1.9165C10.7424 1.9165 10.4603 2.09983 10.3338 2.38429L6.96136 9.97239C6.80754 10.3185 6.46434 10.5415 6.08562 10.5415H3.83341C2.77487 10.5415 1.91675 11.3996 1.91675 12.4582Z" stroke="#9D9DA5" stroke-width="2" stroke-linecap="round" stroke-linejoin="round"/>
</svg>
