<svg width="23" height="23" viewBox="0 0 23 23" fill="none" xmlns="http://www.w3.org/2000/svg">
<path d="M12.4583 16.2917H6.70833M14.375 12.4583H6.70833M10.5417 3.83333H7.475C5.86485 3.83333 5.05977 3.83333 4.44478 4.14669C3.90381 4.42233 3.46399 4.86214 3.18836 5.40311C2.875 6.01811 2.875 6.82318 2.875 8.43333V15.525C2.875 17.1352 2.875 17.9402 3.18836 18.5552C3.46399 19.0962 3.90381 19.536 4.44478 19.8116C5.05977 20.125 5.86485 20.125 7.475 20.125H14.5667C16.1768 20.125 16.9819 20.125 17.5969 19.8116C18.1379 19.536 18.5777 19.0962 18.8533 18.5552C19.1667 17.9402 19.1667 17.1352 19.1667 15.525V12.4583M19.2829 3.71707C20.4057 4.83983 20.4057 6.66018 19.2829 7.78293C18.1602 8.90569 16.3398 8.90569 15.2171 7.78293C14.0943 6.66018 14.0943 4.83983 15.2171 3.71707C16.3398 2.59431 18.1602 2.59431 19.2829 3.71707Z" stroke="#9D9DA5" stroke-width="2" stroke-linecap="round" stroke-linejoin="round"/>
</svg>
