<svg width="23" height="23" viewBox="0 0 23 23" fill="none" xmlns="http://www.w3.org/2000/svg">
<path d="M15.3334 17.25L17.2501 19.1667L21.0834 15.3333M11.5001 14.375H7.66675C5.88064 14.375 4.98758 14.375 4.28313 14.6668C3.34385 15.0559 2.5976 15.8021 2.20854 16.7414C1.91675 17.4458 1.91675 18.3389 1.91675 20.125M14.8543 3.15364C16.2591 3.72231 17.2501 5.09959 17.2501 6.70833C17.2501 8.31708 16.2591 9.69436 14.8543 10.263M12.9376 6.70833C12.9376 8.82543 11.2213 10.5417 9.10425 10.5417C6.98716 10.5417 5.27092 8.82543 5.27092 6.70833C5.27092 4.59124 6.98716 2.875 9.10425 2.875C11.2213 2.875 12.9376 4.59124 12.9376 6.70833Z" stroke="#9D9DA5" stroke-width="2" stroke-linecap="round" stroke-linejoin="round"/>
</svg>
