<svg width="12" height="18" viewBox="0 0 12 18" fill="none" xmlns="http://www.w3.org/2000/svg">
<g clip-path="url(#clip0_136_40868)">
<path d="M5.99702 1.667e-05C5.04432 -0.00245734 4.1112 0.270497 3.31002 0.786017C2.5203 1.29311 1.89983 2.0243 1.52802 2.88602C1.16161 3.73859 1.06494 4.68289 1.25102 5.59202C1.44025 6.5062 1.90101 7.34199 2.57302 7.99002C3.25651 8.64886 4.11733 9.09404 5.05002 9.27102C5.98702 9.45102 6.96002 9.35802 7.84202 9.00302C8.71879 8.65307 9.47291 8.05235 10.01 7.27602C10.4482 6.64087 10.7186 5.90526 10.7962 5.13757C10.8739 4.36987 10.7561 3.59502 10.454 2.88502C10.2095 2.3152 9.85395 1.79983 9.40802 1.36902C8.95698 0.933065 8.42544 0.589009 7.84302 0.356017C7.25603 0.120705 6.62943 -0.000133826 5.99702 1.667e-05ZM5.99702 6.56102C5.4653 6.56295 4.95364 6.35821 4.57002 5.99002C4.38407 5.81118 4.236 5.59675 4.13464 5.35949C4.03328 5.12224 3.9807 4.86701 3.98002 4.60902C3.98002 4.09002 4.19202 3.59302 4.57002 3.22702C4.95323 2.8587 5.46451 2.65361 5.99602 2.65502C6.26202 2.64902 6.52702 2.69502 6.77502 2.79102C7.02202 2.88702 7.24702 3.03102 7.43502 3.21402C7.62402 3.39602 7.77202 3.61402 7.87102 3.85402C7.97102 4.09402 8.01902 4.35002 8.01202 4.60902C8.01302 4.86502 7.96202 5.11902 7.86102 5.35702C7.76002 5.59502 7.61102 5.81102 7.42402 5.99202C7.23702 6.17402 7.01402 6.31802 6.76902 6.41602C6.52309 6.51377 6.26066 6.56333 5.99602 6.56202L5.99702 6.56102ZM7.93802 13.123C8.95977 12.899 9.93491 12.4994 10.82 11.942C11.001 11.814 11.149 11.646 11.25 11.452C11.3591 11.2429 11.4104 11.0086 11.3988 10.7731C11.3872 10.5375 11.3131 10.3094 11.184 10.112C11.0426 9.89668 10.8438 9.72521 10.61 9.61702C10.3739 9.50781 10.1124 9.46501 9.85381 9.4932C9.59517 9.52139 9.3491 9.61951 9.14202 9.77702C8.2022 10.3224 7.13562 10.6114 6.04902 10.615C4.89745 10.5623 3.77301 10.2481 2.76102 9.69602C2.52201 9.55534 2.24827 9.48465 1.97102 9.49202C1.60802 9.49202 1.26002 9.63202 1.00302 9.88102C0.876665 10.0025 0.776044 10.1481 0.707152 10.3092C0.63826 10.4704 0.602507 10.6438 0.602023 10.819C0.588023 11.045 0.642023 11.271 0.757023 11.469C0.872023 11.666 1.04202 11.828 1.24902 11.934C2.10602 12.475 3.06102 12.854 4.06302 13.05L1.39902 15.696C1.27002 15.82 1.16802 15.966 1.09802 16.129C0.99222 16.373 0.964352 16.6437 1.01823 16.9042C1.0721 17.1646 1.2051 17.402 1.39902 17.584C1.53102 17.714 1.68702 17.819 1.86002 17.89C2.03302 17.961 2.22002 17.999 2.40802 18C2.78702 17.995 3.14902 17.846 3.41602 17.584L5.99602 15.004L8.66102 17.584C8.92302 17.814 9.26602 17.938 9.62102 17.929C9.97402 17.919 10.311 17.779 10.56 17.537C10.81 17.294 10.953 16.967 10.96 16.625C10.9676 16.2803 10.839 15.9465 10.602 15.696L7.93802 13.123Z" fill="#868695"/>
</g>
<defs>
<clipPath id="clip0_136_40868">
<rect width="12" height="18" fill="white"/>
</clipPath>
</defs>
</svg>
