<svg width="18" height="19" viewBox="0 0 18 19" fill="none" xmlns="http://www.w3.org/2000/svg">
<circle cx="8.81185" cy="9.49984" r="8.31185" fill="#D0DBFF" stroke="#3B4DBE"/>
<path fill-rule="evenodd" clip-rule="evenodd" d="M6.284 7.70491C6.38358 7.70491 6.46431 7.62418 6.46431 7.5246V5.62025C6.46431 5.52067 6.54503 5.43994 6.64462 5.43994H10.4169C12.1099 5.43994 14.5975 8.46664 11.1092 10.4281C11.0144 10.4814 10.9807 10.6065 11.043 10.6957L12.8021 13.2181C12.8854 13.3377 12.7999 13.5016 12.6542 13.5016H11.595C11.5356 13.5016 11.4799 13.4723 11.4463 13.4232L9.70348 10.8797C9.66986 10.8307 9.61421 10.8013 9.55474 10.8013H7.91353C7.81395 10.8013 7.73322 10.8821 7.73322 10.9816V13.3213C7.73322 13.4209 7.65249 13.5016 7.55291 13.5016H6.64462C6.54503 13.5016 6.46431 13.4209 6.46431 13.3213V10.9816C6.46431 10.8821 6.38358 10.8013 6.284 10.8013H4.80531C4.70573 10.8013 4.625 10.7206 4.625 10.621V9.79522C4.625 9.69564 4.70573 9.61491 4.80531 9.61491H6.284C6.38358 9.61491 6.46431 9.53418 6.46431 9.4346V9.09588C6.46431 8.9963 6.38358 8.91557 6.284 8.91557H4.80531C4.70573 8.91557 4.625 8.83484 4.625 8.73526V7.88522C4.625 7.78563 4.70573 7.70491 4.80531 7.70491H6.284ZM7.91353 6.76606C7.81395 6.76606 7.73322 6.84679 7.73322 6.94637V7.5246C7.73322 7.62418 7.81395 7.70491 7.91353 7.70491H9.57127C9.67086 7.70491 9.75158 7.78563 9.75158 7.88522V8.73526C9.75158 8.83484 9.67086 8.91557 9.57127 8.91557H7.91353C7.81395 8.91557 7.73322 8.9963 7.73322 9.09588V9.4346C7.73322 9.53418 7.81395 9.61491 7.91353 9.61491H9.85992C9.87512 9.61491 9.89085 9.61286 9.90555 9.60898C12.3072 8.97608 11.9894 6.96112 9.88282 6.76606H7.91353Z" fill="#3B4DBE"/>
</svg>
