<svg width="12" height="12" viewBox="0 0 12 12" fill="none" xmlns="http://www.w3.org/2000/svg">
<g clip-path="url(#clip0_136_20014)">
<path d="M5.76044 0.181631L7.15928 3.65418L10.7416 3.97683C10.99 3.99974 11.0909 4.32422 10.902 4.49563L8.18549 6.96404L8.9995 10.636C9.05587 10.8912 8.79233 11.092 8.57874 10.9563L5.50057 9.00944L2.42193 10.9563C2.20788 11.091 1.94526 10.8903 2.00117 10.6355L2.81564 6.96404L0.0977078 4.49517C-0.0906681 4.32376 0.00970739 3.99883 0.259042 3.97637L3.84093 3.65327L5.24023 0.181173C5.25987 0.128014 5.29534 0.0821501 5.34184 0.0497578C5.38835 0.0173654 5.44366 0 5.50034 0C5.55701 0 5.61233 0.0173654 5.65883 0.0497578C5.70534 0.0821501 5.7408 0.128472 5.76044 0.181631Z" fill="#FCA95D" stroke="#FCA95D" stroke-width="0.461538"/>
</g>
<defs>
<clipPath id="clip0_136_20014">
<rect width="12" height="12" fill="white"/>
</clipPath>
</defs>
</svg>
