<svg width="20" height="16" viewBox="0 0 20 16" fill="none" xmlns="http://www.w3.org/2000/svg">
<g clip-path="url(#clip0_136_40875)">
<path d="M1.68418 6.87794C7.59818 4.27594 15.2522 1.10394 16.3082 0.664941C19.0792 -0.485059 19.9302 -0.265059 19.5062 2.28094C19.2012 4.11094 18.3232 10.1659 17.6222 13.9359C17.2072 16.1709 16.2742 16.4359 14.8092 15.4689C14.1042 15.0029 10.5462 12.6499 9.77418 12.0979C9.06918 11.5939 8.09718 10.9879 9.31618 9.79494C9.75018 9.37094 12.5942 6.65494 14.8102 4.54094C15.1002 4.26294 14.7352 3.80694 14.4002 4.02994C11.4142 6.00994 7.27218 8.75994 6.74518 9.11794C5.94918 9.65794 5.18518 9.90594 3.81218 9.51194C2.77418 9.21394 1.76218 8.85894 1.36718 8.72294C-0.15182 8.20294 0.20918 7.52694 1.68418 6.87794Z" fill="#868695"/>
</g>
<defs>
<clipPath id="clip0_136_40875">
<rect width="20" height="16" fill="white"/>
</clipPath>
</defs>
</svg>
