<svg width="20" height="12" viewBox="0 0 20 12" fill="none" xmlns="http://www.w3.org/2000/svg">
<g clip-path="url(#clip0_136_40861)">
<path d="M10.893 12C4.06 12 0.163 7.495 0 0H3.423C3.535 5.502 6.059 7.832 8.057 8.312V0H11.28V4.745C13.254 4.541 15.328 2.378 16.028 0H19.251C18.9844 1.23955 18.4581 2.40855 17.707 3.43C16.945 4.46643 15.9779 5.33508 14.866 5.982C16.1071 6.57276 17.2103 7.41768 18.104 8.462C18.9843 9.49044 19.6311 10.6975 20 12H16.452C16.1183 10.8654 15.4519 9.85693 14.539 9.105C13.6086 8.33788 12.4774 7.85435 11.28 7.712V12H10.893Z" fill="#868695"/>
</g>
<defs>
<clipPath id="clip0_136_40861">
<rect width="20" height="12" fill="white"/>
</clipPath>
</defs>
</svg>
