<svg width="20" height="14" viewBox="0 0 20 14" fill="none" xmlns="http://www.w3.org/2000/svg">
<g clip-path="url(#clip0_136_40886)">
<path d="M0 6.755C0 3.693 0 2.162 0.893 1.165C0.978612 1.06942 1.06942 0.978612 1.165 0.893C2.162 0 3.693 0 6.755 0H13.245C16.307 0 17.838 0 18.835 0.893C18.931 0.978 19.021 1.069 19.107 1.165C20 2.162 20 3.693 20 6.755V7.245C20 10.307 20 11.838 19.107 12.835C19.0214 12.9306 18.9306 13.0214 18.835 13.107C17.838 14 16.307 14 13.245 14H6.755C3.693 14 2.162 14 1.165 13.107C1.06941 13.0214 0.978605 12.9306 0.893 12.835C0 11.838 0 10.307 0 7.245V6.755Z" fill="#868695"/>
<path d="M13.135 7.03098L7.88501 4.00098V10.062L13.135 7.03098Z" fill="white"/>
</g>
<defs>
<clipPath id="clip0_136_40886">
<rect width="20" height="14" fill="white"/>
</clipPath>
</defs>
</svg>
